%TF.GenerationSoftware,KiCad,Pcbnew,7.0.10*%
%TF.CreationDate,2024-03-01T22:39:56+01:00*%
%TF.ProjectId,lightsaber,6c696768-7473-4616-9265-722e6b696361,rev?*%
%TF.SameCoordinates,Original*%
%TF.FileFunction,Drillmap*%
%TF.FilePolarity,Positive*%
%FSLAX45Y45*%
G04 Gerber Fmt 4.5, Leading zero omitted, Abs format (unit mm)*
G04 Created by KiCad (PCBNEW 7.0.10) date 2024-03-01 22:39:56*
%MOMM*%
%LPD*%
G01*
G04 APERTURE LIST*
%ADD10C,0.100000*%
%ADD11C,0.200000*%
G04 APERTURE END LIST*
D10*
X8890000Y-7823200D02*
X8890000Y-6324600D01*
X9779000Y-7823200D02*
X8890000Y-7823200D01*
X9779000Y-6324600D02*
X9779000Y-7823200D01*
X8890000Y-6324600D02*
X9779000Y-6324600D01*
D11*
X9145777Y-8139684D02*
X9145777Y-7939684D01*
X9145777Y-7939684D02*
X9193396Y-7939684D01*
X9193396Y-7939684D02*
X9221967Y-7949208D01*
X9221967Y-7949208D02*
X9241015Y-7968255D01*
X9241015Y-7968255D02*
X9250539Y-7987303D01*
X9250539Y-7987303D02*
X9260063Y-8025398D01*
X9260063Y-8025398D02*
X9260063Y-8053969D01*
X9260063Y-8053969D02*
X9250539Y-8092065D01*
X9250539Y-8092065D02*
X9241015Y-8111112D01*
X9241015Y-8111112D02*
X9221967Y-8130160D01*
X9221967Y-8130160D02*
X9193396Y-8139684D01*
X9193396Y-8139684D02*
X9145777Y-8139684D01*
X9345777Y-8139684D02*
X9345777Y-8006350D01*
X9345777Y-8044446D02*
X9355301Y-8025398D01*
X9355301Y-8025398D02*
X9364824Y-8015874D01*
X9364824Y-8015874D02*
X9383872Y-8006350D01*
X9383872Y-8006350D02*
X9402920Y-8006350D01*
X9469586Y-8139684D02*
X9469586Y-8006350D01*
X9469586Y-7939684D02*
X9460063Y-7949208D01*
X9460063Y-7949208D02*
X9469586Y-7958731D01*
X9469586Y-7958731D02*
X9479110Y-7949208D01*
X9479110Y-7949208D02*
X9469586Y-7939684D01*
X9469586Y-7939684D02*
X9469586Y-7958731D01*
X9593396Y-8139684D02*
X9574348Y-8130160D01*
X9574348Y-8130160D02*
X9564824Y-8111112D01*
X9564824Y-8111112D02*
X9564824Y-7939684D01*
X9698158Y-8139684D02*
X9679110Y-8130160D01*
X9679110Y-8130160D02*
X9669586Y-8111112D01*
X9669586Y-8111112D02*
X9669586Y-7939684D01*
X9926729Y-8139684D02*
X9926729Y-7939684D01*
X9926729Y-7939684D02*
X9993396Y-8082541D01*
X9993396Y-8082541D02*
X10060063Y-7939684D01*
X10060063Y-7939684D02*
X10060063Y-8139684D01*
X10241015Y-8139684D02*
X10241015Y-8034922D01*
X10241015Y-8034922D02*
X10231491Y-8015874D01*
X10231491Y-8015874D02*
X10212444Y-8006350D01*
X10212444Y-8006350D02*
X10174348Y-8006350D01*
X10174348Y-8006350D02*
X10155301Y-8015874D01*
X10241015Y-8130160D02*
X10221967Y-8139684D01*
X10221967Y-8139684D02*
X10174348Y-8139684D01*
X10174348Y-8139684D02*
X10155301Y-8130160D01*
X10155301Y-8130160D02*
X10145777Y-8111112D01*
X10145777Y-8111112D02*
X10145777Y-8092065D01*
X10145777Y-8092065D02*
X10155301Y-8073017D01*
X10155301Y-8073017D02*
X10174348Y-8063493D01*
X10174348Y-8063493D02*
X10221967Y-8063493D01*
X10221967Y-8063493D02*
X10241015Y-8053969D01*
X10336253Y-8006350D02*
X10336253Y-8206350D01*
X10336253Y-8015874D02*
X10355301Y-8006350D01*
X10355301Y-8006350D02*
X10393396Y-8006350D01*
X10393396Y-8006350D02*
X10412444Y-8015874D01*
X10412444Y-8015874D02*
X10421967Y-8025398D01*
X10421967Y-8025398D02*
X10431491Y-8044446D01*
X10431491Y-8044446D02*
X10431491Y-8101588D01*
X10431491Y-8101588D02*
X10421967Y-8120636D01*
X10421967Y-8120636D02*
X10412444Y-8130160D01*
X10412444Y-8130160D02*
X10393396Y-8139684D01*
X10393396Y-8139684D02*
X10355301Y-8139684D01*
X10355301Y-8139684D02*
X10336253Y-8130160D01*
X10517205Y-8120636D02*
X10526729Y-8130160D01*
X10526729Y-8130160D02*
X10517205Y-8139684D01*
X10517205Y-8139684D02*
X10507682Y-8130160D01*
X10507682Y-8130160D02*
X10517205Y-8120636D01*
X10517205Y-8120636D02*
X10517205Y-8139684D01*
X10517205Y-8015874D02*
X10526729Y-8025398D01*
X10526729Y-8025398D02*
X10517205Y-8034922D01*
X10517205Y-8034922D02*
X10507682Y-8025398D01*
X10507682Y-8025398D02*
X10517205Y-8015874D01*
X10517205Y-8015874D02*
X10517205Y-8034922D01*
M02*
