%TF.GenerationSoftware,KiCad,Pcbnew,7.0.10*%
%TF.CreationDate,2024-03-01T22:39:56+01:00*%
%TF.ProjectId,lightsaber,6c696768-7473-4616-9265-722e6b696361,rev?*%
%TF.SameCoordinates,Original*%
%TF.FileFunction,Drillmap*%
%TF.FilePolarity,Positive*%
%FSLAX45Y45*%
G04 Gerber Fmt 4.5, Leading zero omitted, Abs format (unit mm)*
G04 Created by KiCad (PCBNEW 7.0.10) date 2024-03-01 22:39:56*
%MOMM*%
%LPD*%
G01*
G04 APERTURE LIST*
%ADD10C,0.100000*%
%ADD11C,0.200000*%
G04 APERTURE END LIST*
D10*
X8890000Y-7823200D02*
X8890000Y-6324600D01*
X9779000Y-7823200D02*
X8890000Y-7823200D01*
X9779000Y-6324600D02*
X9779000Y-7823200D01*
X8890000Y-6324600D02*
X9779000Y-6324600D01*
D11*
D10*
X8920800Y-7714300D02*
X8960800Y-7754300D01*
X8960800Y-7714300D02*
X8920800Y-7754300D01*
X9162100Y-7714300D02*
X9202100Y-7754300D01*
X9202100Y-7714300D02*
X9162100Y-7754300D01*
X9067400Y-6451600D02*
G75*
G03*
X9017400Y-6451600I-25000J0D01*
G01*
X9017400Y-6451600D02*
G75*
G03*
X9067400Y-6451600I25000J0D01*
G01*
X9067400Y-6551600D02*
G75*
G03*
X9017400Y-6551600I-25000J0D01*
G01*
X9017400Y-6551600D02*
G75*
G03*
X9067400Y-6551600I25000J0D01*
G01*
X9067400Y-6651600D02*
G75*
G03*
X9017400Y-6651600I-25000J0D01*
G01*
X9017400Y-6651600D02*
G75*
G03*
X9067400Y-6651600I25000J0D01*
G01*
X9067400Y-6751600D02*
G75*
G03*
X9017400Y-6751600I-25000J0D01*
G01*
X9017400Y-6751600D02*
G75*
G03*
X9067400Y-6751600I25000J0D01*
G01*
X9321800Y-6452400D02*
X9321800Y-6552400D01*
X9271800Y-6502400D02*
X9371800Y-6502400D01*
X9347200Y-7468400D02*
X9347200Y-7568400D01*
X9297200Y-7518400D02*
X9397200Y-7518400D01*
D11*
X9145777Y-8139684D02*
X9145777Y-7939684D01*
X9145777Y-7939684D02*
X9193396Y-7939684D01*
X9193396Y-7939684D02*
X9221967Y-7949208D01*
X9221967Y-7949208D02*
X9241015Y-7968255D01*
X9241015Y-7968255D02*
X9250539Y-7987303D01*
X9250539Y-7987303D02*
X9260063Y-8025398D01*
X9260063Y-8025398D02*
X9260063Y-8053969D01*
X9260063Y-8053969D02*
X9250539Y-8092065D01*
X9250539Y-8092065D02*
X9241015Y-8111112D01*
X9241015Y-8111112D02*
X9221967Y-8130160D01*
X9221967Y-8130160D02*
X9193396Y-8139684D01*
X9193396Y-8139684D02*
X9145777Y-8139684D01*
X9345777Y-8139684D02*
X9345777Y-8006350D01*
X9345777Y-8044446D02*
X9355301Y-8025398D01*
X9355301Y-8025398D02*
X9364824Y-8015874D01*
X9364824Y-8015874D02*
X9383872Y-8006350D01*
X9383872Y-8006350D02*
X9402920Y-8006350D01*
X9469586Y-8139684D02*
X9469586Y-8006350D01*
X9469586Y-7939684D02*
X9460063Y-7949208D01*
X9460063Y-7949208D02*
X9469586Y-7958731D01*
X9469586Y-7958731D02*
X9479110Y-7949208D01*
X9479110Y-7949208D02*
X9469586Y-7939684D01*
X9469586Y-7939684D02*
X9469586Y-7958731D01*
X9593396Y-8139684D02*
X9574348Y-8130160D01*
X9574348Y-8130160D02*
X9564824Y-8111112D01*
X9564824Y-8111112D02*
X9564824Y-7939684D01*
X9698158Y-8139684D02*
X9679110Y-8130160D01*
X9679110Y-8130160D02*
X9669586Y-8111112D01*
X9669586Y-8111112D02*
X9669586Y-7939684D01*
X9926729Y-8139684D02*
X9926729Y-7939684D01*
X9926729Y-7939684D02*
X9993396Y-8082541D01*
X9993396Y-8082541D02*
X10060063Y-7939684D01*
X10060063Y-7939684D02*
X10060063Y-8139684D01*
X10241015Y-8139684D02*
X10241015Y-8034922D01*
X10241015Y-8034922D02*
X10231491Y-8015874D01*
X10231491Y-8015874D02*
X10212444Y-8006350D01*
X10212444Y-8006350D02*
X10174348Y-8006350D01*
X10174348Y-8006350D02*
X10155301Y-8015874D01*
X10241015Y-8130160D02*
X10221967Y-8139684D01*
X10221967Y-8139684D02*
X10174348Y-8139684D01*
X10174348Y-8139684D02*
X10155301Y-8130160D01*
X10155301Y-8130160D02*
X10145777Y-8111112D01*
X10145777Y-8111112D02*
X10145777Y-8092065D01*
X10145777Y-8092065D02*
X10155301Y-8073017D01*
X10155301Y-8073017D02*
X10174348Y-8063493D01*
X10174348Y-8063493D02*
X10221967Y-8063493D01*
X10221967Y-8063493D02*
X10241015Y-8053969D01*
X10336253Y-8006350D02*
X10336253Y-8206350D01*
X10336253Y-8015874D02*
X10355301Y-8006350D01*
X10355301Y-8006350D02*
X10393396Y-8006350D01*
X10393396Y-8006350D02*
X10412444Y-8015874D01*
X10412444Y-8015874D02*
X10421967Y-8025398D01*
X10421967Y-8025398D02*
X10431491Y-8044446D01*
X10431491Y-8044446D02*
X10431491Y-8101588D01*
X10431491Y-8101588D02*
X10421967Y-8120636D01*
X10421967Y-8120636D02*
X10412444Y-8130160D01*
X10412444Y-8130160D02*
X10393396Y-8139684D01*
X10393396Y-8139684D02*
X10355301Y-8139684D01*
X10355301Y-8139684D02*
X10336253Y-8130160D01*
X10517205Y-8120636D02*
X10526729Y-8130160D01*
X10526729Y-8130160D02*
X10517205Y-8139684D01*
X10517205Y-8139684D02*
X10507682Y-8130160D01*
X10507682Y-8130160D02*
X10517205Y-8120636D01*
X10517205Y-8120636D02*
X10517205Y-8139684D01*
X10517205Y-8015874D02*
X10526729Y-8025398D01*
X10526729Y-8025398D02*
X10517205Y-8034922D01*
X10517205Y-8034922D02*
X10507682Y-8025398D01*
X10507682Y-8025398D02*
X10517205Y-8015874D01*
X10517205Y-8015874D02*
X10517205Y-8034922D01*
D10*
X8845000Y-8448200D02*
X8885000Y-8488200D01*
X8885000Y-8448200D02*
X8845000Y-8488200D01*
D11*
X9183872Y-8359684D02*
X9202920Y-8359684D01*
X9202920Y-8359684D02*
X9221967Y-8369208D01*
X9221967Y-8369208D02*
X9231491Y-8378731D01*
X9231491Y-8378731D02*
X9241015Y-8397779D01*
X9241015Y-8397779D02*
X9250539Y-8435874D01*
X9250539Y-8435874D02*
X9250539Y-8483493D01*
X9250539Y-8483493D02*
X9241015Y-8521589D01*
X9241015Y-8521589D02*
X9231491Y-8540636D01*
X9231491Y-8540636D02*
X9221967Y-8550160D01*
X9221967Y-8550160D02*
X9202920Y-8559684D01*
X9202920Y-8559684D02*
X9183872Y-8559684D01*
X9183872Y-8559684D02*
X9164824Y-8550160D01*
X9164824Y-8550160D02*
X9155301Y-8540636D01*
X9155301Y-8540636D02*
X9145777Y-8521589D01*
X9145777Y-8521589D02*
X9136253Y-8483493D01*
X9136253Y-8483493D02*
X9136253Y-8435874D01*
X9136253Y-8435874D02*
X9145777Y-8397779D01*
X9145777Y-8397779D02*
X9155301Y-8378731D01*
X9155301Y-8378731D02*
X9164824Y-8369208D01*
X9164824Y-8369208D02*
X9183872Y-8359684D01*
X9336253Y-8540636D02*
X9345777Y-8550160D01*
X9345777Y-8550160D02*
X9336253Y-8559684D01*
X9336253Y-8559684D02*
X9326729Y-8550160D01*
X9326729Y-8550160D02*
X9336253Y-8540636D01*
X9336253Y-8540636D02*
X9336253Y-8559684D01*
X9517205Y-8426350D02*
X9517205Y-8559684D01*
X9469586Y-8350160D02*
X9421967Y-8493017D01*
X9421967Y-8493017D02*
X9545777Y-8493017D01*
X9660063Y-8359684D02*
X9679110Y-8359684D01*
X9679110Y-8359684D02*
X9698158Y-8369208D01*
X9698158Y-8369208D02*
X9707682Y-8378731D01*
X9707682Y-8378731D02*
X9717205Y-8397779D01*
X9717205Y-8397779D02*
X9726729Y-8435874D01*
X9726729Y-8435874D02*
X9726729Y-8483493D01*
X9726729Y-8483493D02*
X9717205Y-8521589D01*
X9717205Y-8521589D02*
X9707682Y-8540636D01*
X9707682Y-8540636D02*
X9698158Y-8550160D01*
X9698158Y-8550160D02*
X9679110Y-8559684D01*
X9679110Y-8559684D02*
X9660063Y-8559684D01*
X9660063Y-8559684D02*
X9641015Y-8550160D01*
X9641015Y-8550160D02*
X9631491Y-8540636D01*
X9631491Y-8540636D02*
X9621967Y-8521589D01*
X9621967Y-8521589D02*
X9612444Y-8483493D01*
X9612444Y-8483493D02*
X9612444Y-8435874D01*
X9612444Y-8435874D02*
X9621967Y-8397779D01*
X9621967Y-8397779D02*
X9631491Y-8378731D01*
X9631491Y-8378731D02*
X9641015Y-8369208D01*
X9641015Y-8369208D02*
X9660063Y-8359684D01*
X9850539Y-8359684D02*
X9869586Y-8359684D01*
X9869586Y-8359684D02*
X9888634Y-8369208D01*
X9888634Y-8369208D02*
X9898158Y-8378731D01*
X9898158Y-8378731D02*
X9907682Y-8397779D01*
X9907682Y-8397779D02*
X9917205Y-8435874D01*
X9917205Y-8435874D02*
X9917205Y-8483493D01*
X9917205Y-8483493D02*
X9907682Y-8521589D01*
X9907682Y-8521589D02*
X9898158Y-8540636D01*
X9898158Y-8540636D02*
X9888634Y-8550160D01*
X9888634Y-8550160D02*
X9869586Y-8559684D01*
X9869586Y-8559684D02*
X9850539Y-8559684D01*
X9850539Y-8559684D02*
X9831491Y-8550160D01*
X9831491Y-8550160D02*
X9821967Y-8540636D01*
X9821967Y-8540636D02*
X9812444Y-8521589D01*
X9812444Y-8521589D02*
X9802920Y-8483493D01*
X9802920Y-8483493D02*
X9802920Y-8435874D01*
X9802920Y-8435874D02*
X9812444Y-8397779D01*
X9812444Y-8397779D02*
X9821967Y-8378731D01*
X9821967Y-8378731D02*
X9831491Y-8369208D01*
X9831491Y-8369208D02*
X9850539Y-8359684D01*
X10002920Y-8559684D02*
X10002920Y-8426350D01*
X10002920Y-8445398D02*
X10012444Y-8435874D01*
X10012444Y-8435874D02*
X10031491Y-8426350D01*
X10031491Y-8426350D02*
X10060063Y-8426350D01*
X10060063Y-8426350D02*
X10079110Y-8435874D01*
X10079110Y-8435874D02*
X10088634Y-8454922D01*
X10088634Y-8454922D02*
X10088634Y-8559684D01*
X10088634Y-8454922D02*
X10098158Y-8435874D01*
X10098158Y-8435874D02*
X10117205Y-8426350D01*
X10117205Y-8426350D02*
X10145777Y-8426350D01*
X10145777Y-8426350D02*
X10164825Y-8435874D01*
X10164825Y-8435874D02*
X10174348Y-8454922D01*
X10174348Y-8454922D02*
X10174348Y-8559684D01*
X10269586Y-8559684D02*
X10269586Y-8426350D01*
X10269586Y-8445398D02*
X10279110Y-8435874D01*
X10279110Y-8435874D02*
X10298158Y-8426350D01*
X10298158Y-8426350D02*
X10326729Y-8426350D01*
X10326729Y-8426350D02*
X10345777Y-8435874D01*
X10345777Y-8435874D02*
X10355301Y-8454922D01*
X10355301Y-8454922D02*
X10355301Y-8559684D01*
X10355301Y-8454922D02*
X10364825Y-8435874D01*
X10364825Y-8435874D02*
X10383872Y-8426350D01*
X10383872Y-8426350D02*
X10412444Y-8426350D01*
X10412444Y-8426350D02*
X10431491Y-8435874D01*
X10431491Y-8435874D02*
X10441015Y-8454922D01*
X10441015Y-8454922D02*
X10441015Y-8559684D01*
X10831491Y-8350160D02*
X10660063Y-8607303D01*
X11088634Y-8359684D02*
X11107682Y-8359684D01*
X11107682Y-8359684D02*
X11126729Y-8369208D01*
X11126729Y-8369208D02*
X11136253Y-8378731D01*
X11136253Y-8378731D02*
X11145777Y-8397779D01*
X11145777Y-8397779D02*
X11155301Y-8435874D01*
X11155301Y-8435874D02*
X11155301Y-8483493D01*
X11155301Y-8483493D02*
X11145777Y-8521589D01*
X11145777Y-8521589D02*
X11136253Y-8540636D01*
X11136253Y-8540636D02*
X11126729Y-8550160D01*
X11126729Y-8550160D02*
X11107682Y-8559684D01*
X11107682Y-8559684D02*
X11088634Y-8559684D01*
X11088634Y-8559684D02*
X11069587Y-8550160D01*
X11069587Y-8550160D02*
X11060063Y-8540636D01*
X11060063Y-8540636D02*
X11050539Y-8521589D01*
X11050539Y-8521589D02*
X11041015Y-8483493D01*
X11041015Y-8483493D02*
X11041015Y-8435874D01*
X11041015Y-8435874D02*
X11050539Y-8397779D01*
X11050539Y-8397779D02*
X11060063Y-8378731D01*
X11060063Y-8378731D02*
X11069587Y-8369208D01*
X11069587Y-8369208D02*
X11088634Y-8359684D01*
X11241015Y-8540636D02*
X11250539Y-8550160D01*
X11250539Y-8550160D02*
X11241015Y-8559684D01*
X11241015Y-8559684D02*
X11231491Y-8550160D01*
X11231491Y-8550160D02*
X11241015Y-8540636D01*
X11241015Y-8540636D02*
X11241015Y-8559684D01*
X11374348Y-8359684D02*
X11393396Y-8359684D01*
X11393396Y-8359684D02*
X11412444Y-8369208D01*
X11412444Y-8369208D02*
X11421967Y-8378731D01*
X11421967Y-8378731D02*
X11431491Y-8397779D01*
X11431491Y-8397779D02*
X11441015Y-8435874D01*
X11441015Y-8435874D02*
X11441015Y-8483493D01*
X11441015Y-8483493D02*
X11431491Y-8521589D01*
X11431491Y-8521589D02*
X11421967Y-8540636D01*
X11421967Y-8540636D02*
X11412444Y-8550160D01*
X11412444Y-8550160D02*
X11393396Y-8559684D01*
X11393396Y-8559684D02*
X11374348Y-8559684D01*
X11374348Y-8559684D02*
X11355301Y-8550160D01*
X11355301Y-8550160D02*
X11345777Y-8540636D01*
X11345777Y-8540636D02*
X11336253Y-8521589D01*
X11336253Y-8521589D02*
X11326729Y-8483493D01*
X11326729Y-8483493D02*
X11326729Y-8435874D01*
X11326729Y-8435874D02*
X11336253Y-8397779D01*
X11336253Y-8397779D02*
X11345777Y-8378731D01*
X11345777Y-8378731D02*
X11355301Y-8369208D01*
X11355301Y-8369208D02*
X11374348Y-8359684D01*
X11631491Y-8559684D02*
X11517206Y-8559684D01*
X11574348Y-8559684D02*
X11574348Y-8359684D01*
X11574348Y-8359684D02*
X11555301Y-8388255D01*
X11555301Y-8388255D02*
X11536253Y-8407303D01*
X11536253Y-8407303D02*
X11517206Y-8416827D01*
X11812444Y-8359684D02*
X11717206Y-8359684D01*
X11717206Y-8359684D02*
X11707682Y-8454922D01*
X11707682Y-8454922D02*
X11717206Y-8445398D01*
X11717206Y-8445398D02*
X11736253Y-8435874D01*
X11736253Y-8435874D02*
X11783872Y-8435874D01*
X11783872Y-8435874D02*
X11802920Y-8445398D01*
X11802920Y-8445398D02*
X11812444Y-8454922D01*
X11812444Y-8454922D02*
X11821967Y-8473970D01*
X11821967Y-8473970D02*
X11821967Y-8521589D01*
X11821967Y-8521589D02*
X11812444Y-8540636D01*
X11812444Y-8540636D02*
X11802920Y-8550160D01*
X11802920Y-8550160D02*
X11783872Y-8559684D01*
X11783872Y-8559684D02*
X11736253Y-8559684D01*
X11736253Y-8559684D02*
X11717206Y-8550160D01*
X11717206Y-8550160D02*
X11707682Y-8540636D01*
X11888634Y-8359684D02*
X12021967Y-8359684D01*
X12021967Y-8359684D02*
X11936253Y-8559684D01*
X12088634Y-8359684D02*
X12088634Y-8397779D01*
X12164825Y-8359684D02*
X12164825Y-8397779D01*
X12460063Y-8635874D02*
X12450539Y-8626350D01*
X12450539Y-8626350D02*
X12431491Y-8597779D01*
X12431491Y-8597779D02*
X12421968Y-8578731D01*
X12421968Y-8578731D02*
X12412444Y-8550160D01*
X12412444Y-8550160D02*
X12402920Y-8502541D01*
X12402920Y-8502541D02*
X12402920Y-8464446D01*
X12402920Y-8464446D02*
X12412444Y-8416827D01*
X12412444Y-8416827D02*
X12421968Y-8388255D01*
X12421968Y-8388255D02*
X12431491Y-8369208D01*
X12431491Y-8369208D02*
X12450539Y-8340636D01*
X12450539Y-8340636D02*
X12460063Y-8331112D01*
X12526729Y-8378731D02*
X12536253Y-8369208D01*
X12536253Y-8369208D02*
X12555301Y-8359684D01*
X12555301Y-8359684D02*
X12602920Y-8359684D01*
X12602920Y-8359684D02*
X12621968Y-8369208D01*
X12621968Y-8369208D02*
X12631491Y-8378731D01*
X12631491Y-8378731D02*
X12641015Y-8397779D01*
X12641015Y-8397779D02*
X12641015Y-8416827D01*
X12641015Y-8416827D02*
X12631491Y-8445398D01*
X12631491Y-8445398D02*
X12517206Y-8559684D01*
X12517206Y-8559684D02*
X12641015Y-8559684D01*
X12879110Y-8559684D02*
X12879110Y-8359684D01*
X12964825Y-8559684D02*
X12964825Y-8454922D01*
X12964825Y-8454922D02*
X12955301Y-8435874D01*
X12955301Y-8435874D02*
X12936253Y-8426350D01*
X12936253Y-8426350D02*
X12907682Y-8426350D01*
X12907682Y-8426350D02*
X12888634Y-8435874D01*
X12888634Y-8435874D02*
X12879110Y-8445398D01*
X13088634Y-8559684D02*
X13069587Y-8550160D01*
X13069587Y-8550160D02*
X13060063Y-8540636D01*
X13060063Y-8540636D02*
X13050539Y-8521589D01*
X13050539Y-8521589D02*
X13050539Y-8464446D01*
X13050539Y-8464446D02*
X13060063Y-8445398D01*
X13060063Y-8445398D02*
X13069587Y-8435874D01*
X13069587Y-8435874D02*
X13088634Y-8426350D01*
X13088634Y-8426350D02*
X13117206Y-8426350D01*
X13117206Y-8426350D02*
X13136253Y-8435874D01*
X13136253Y-8435874D02*
X13145777Y-8445398D01*
X13145777Y-8445398D02*
X13155301Y-8464446D01*
X13155301Y-8464446D02*
X13155301Y-8521589D01*
X13155301Y-8521589D02*
X13145777Y-8540636D01*
X13145777Y-8540636D02*
X13136253Y-8550160D01*
X13136253Y-8550160D02*
X13117206Y-8559684D01*
X13117206Y-8559684D02*
X13088634Y-8559684D01*
X13269587Y-8559684D02*
X13250539Y-8550160D01*
X13250539Y-8550160D02*
X13241015Y-8531112D01*
X13241015Y-8531112D02*
X13241015Y-8359684D01*
X13421968Y-8550160D02*
X13402920Y-8559684D01*
X13402920Y-8559684D02*
X13364825Y-8559684D01*
X13364825Y-8559684D02*
X13345777Y-8550160D01*
X13345777Y-8550160D02*
X13336253Y-8531112D01*
X13336253Y-8531112D02*
X13336253Y-8454922D01*
X13336253Y-8454922D02*
X13345777Y-8435874D01*
X13345777Y-8435874D02*
X13364825Y-8426350D01*
X13364825Y-8426350D02*
X13402920Y-8426350D01*
X13402920Y-8426350D02*
X13421968Y-8435874D01*
X13421968Y-8435874D02*
X13431491Y-8454922D01*
X13431491Y-8454922D02*
X13431491Y-8473970D01*
X13431491Y-8473970D02*
X13336253Y-8493017D01*
X13507682Y-8550160D02*
X13526730Y-8559684D01*
X13526730Y-8559684D02*
X13564825Y-8559684D01*
X13564825Y-8559684D02*
X13583872Y-8550160D01*
X13583872Y-8550160D02*
X13593396Y-8531112D01*
X13593396Y-8531112D02*
X13593396Y-8521589D01*
X13593396Y-8521589D02*
X13583872Y-8502541D01*
X13583872Y-8502541D02*
X13564825Y-8493017D01*
X13564825Y-8493017D02*
X13536253Y-8493017D01*
X13536253Y-8493017D02*
X13517206Y-8483493D01*
X13517206Y-8483493D02*
X13507682Y-8464446D01*
X13507682Y-8464446D02*
X13507682Y-8454922D01*
X13507682Y-8454922D02*
X13517206Y-8435874D01*
X13517206Y-8435874D02*
X13536253Y-8426350D01*
X13536253Y-8426350D02*
X13564825Y-8426350D01*
X13564825Y-8426350D02*
X13583872Y-8435874D01*
X13660063Y-8635874D02*
X13669587Y-8626350D01*
X13669587Y-8626350D02*
X13688634Y-8597779D01*
X13688634Y-8597779D02*
X13698158Y-8578731D01*
X13698158Y-8578731D02*
X13707682Y-8550160D01*
X13707682Y-8550160D02*
X13717206Y-8502541D01*
X13717206Y-8502541D02*
X13717206Y-8464446D01*
X13717206Y-8464446D02*
X13707682Y-8416827D01*
X13707682Y-8416827D02*
X13698158Y-8388255D01*
X13698158Y-8388255D02*
X13688634Y-8369208D01*
X13688634Y-8369208D02*
X13669587Y-8340636D01*
X13669587Y-8340636D02*
X13660063Y-8331112D01*
D10*
X8885000Y-8732200D02*
G75*
G03*
X8835000Y-8732200I-25000J0D01*
G01*
X8835000Y-8732200D02*
G75*
G03*
X8885000Y-8732200I25000J0D01*
G01*
D11*
X9183872Y-8623684D02*
X9202920Y-8623684D01*
X9202920Y-8623684D02*
X9221967Y-8633208D01*
X9221967Y-8633208D02*
X9231491Y-8642731D01*
X9231491Y-8642731D02*
X9241015Y-8661779D01*
X9241015Y-8661779D02*
X9250539Y-8699874D01*
X9250539Y-8699874D02*
X9250539Y-8747493D01*
X9250539Y-8747493D02*
X9241015Y-8785589D01*
X9241015Y-8785589D02*
X9231491Y-8804636D01*
X9231491Y-8804636D02*
X9221967Y-8814160D01*
X9221967Y-8814160D02*
X9202920Y-8823684D01*
X9202920Y-8823684D02*
X9183872Y-8823684D01*
X9183872Y-8823684D02*
X9164824Y-8814160D01*
X9164824Y-8814160D02*
X9155301Y-8804636D01*
X9155301Y-8804636D02*
X9145777Y-8785589D01*
X9145777Y-8785589D02*
X9136253Y-8747493D01*
X9136253Y-8747493D02*
X9136253Y-8699874D01*
X9136253Y-8699874D02*
X9145777Y-8661779D01*
X9145777Y-8661779D02*
X9155301Y-8642731D01*
X9155301Y-8642731D02*
X9164824Y-8633208D01*
X9164824Y-8633208D02*
X9183872Y-8623684D01*
X9336253Y-8804636D02*
X9345777Y-8814160D01*
X9345777Y-8814160D02*
X9336253Y-8823684D01*
X9336253Y-8823684D02*
X9326729Y-8814160D01*
X9326729Y-8814160D02*
X9336253Y-8804636D01*
X9336253Y-8804636D02*
X9336253Y-8823684D01*
X9526729Y-8623684D02*
X9431491Y-8623684D01*
X9431491Y-8623684D02*
X9421967Y-8718922D01*
X9421967Y-8718922D02*
X9431491Y-8709398D01*
X9431491Y-8709398D02*
X9450539Y-8699874D01*
X9450539Y-8699874D02*
X9498158Y-8699874D01*
X9498158Y-8699874D02*
X9517205Y-8709398D01*
X9517205Y-8709398D02*
X9526729Y-8718922D01*
X9526729Y-8718922D02*
X9536253Y-8737970D01*
X9536253Y-8737970D02*
X9536253Y-8785589D01*
X9536253Y-8785589D02*
X9526729Y-8804636D01*
X9526729Y-8804636D02*
X9517205Y-8814160D01*
X9517205Y-8814160D02*
X9498158Y-8823684D01*
X9498158Y-8823684D02*
X9450539Y-8823684D01*
X9450539Y-8823684D02*
X9431491Y-8814160D01*
X9431491Y-8814160D02*
X9421967Y-8804636D01*
X9660063Y-8623684D02*
X9679110Y-8623684D01*
X9679110Y-8623684D02*
X9698158Y-8633208D01*
X9698158Y-8633208D02*
X9707682Y-8642731D01*
X9707682Y-8642731D02*
X9717205Y-8661779D01*
X9717205Y-8661779D02*
X9726729Y-8699874D01*
X9726729Y-8699874D02*
X9726729Y-8747493D01*
X9726729Y-8747493D02*
X9717205Y-8785589D01*
X9717205Y-8785589D02*
X9707682Y-8804636D01*
X9707682Y-8804636D02*
X9698158Y-8814160D01*
X9698158Y-8814160D02*
X9679110Y-8823684D01*
X9679110Y-8823684D02*
X9660063Y-8823684D01*
X9660063Y-8823684D02*
X9641015Y-8814160D01*
X9641015Y-8814160D02*
X9631491Y-8804636D01*
X9631491Y-8804636D02*
X9621967Y-8785589D01*
X9621967Y-8785589D02*
X9612444Y-8747493D01*
X9612444Y-8747493D02*
X9612444Y-8699874D01*
X9612444Y-8699874D02*
X9621967Y-8661779D01*
X9621967Y-8661779D02*
X9631491Y-8642731D01*
X9631491Y-8642731D02*
X9641015Y-8633208D01*
X9641015Y-8633208D02*
X9660063Y-8623684D01*
X9850539Y-8623684D02*
X9869586Y-8623684D01*
X9869586Y-8623684D02*
X9888634Y-8633208D01*
X9888634Y-8633208D02*
X9898158Y-8642731D01*
X9898158Y-8642731D02*
X9907682Y-8661779D01*
X9907682Y-8661779D02*
X9917205Y-8699874D01*
X9917205Y-8699874D02*
X9917205Y-8747493D01*
X9917205Y-8747493D02*
X9907682Y-8785589D01*
X9907682Y-8785589D02*
X9898158Y-8804636D01*
X9898158Y-8804636D02*
X9888634Y-8814160D01*
X9888634Y-8814160D02*
X9869586Y-8823684D01*
X9869586Y-8823684D02*
X9850539Y-8823684D01*
X9850539Y-8823684D02*
X9831491Y-8814160D01*
X9831491Y-8814160D02*
X9821967Y-8804636D01*
X9821967Y-8804636D02*
X9812444Y-8785589D01*
X9812444Y-8785589D02*
X9802920Y-8747493D01*
X9802920Y-8747493D02*
X9802920Y-8699874D01*
X9802920Y-8699874D02*
X9812444Y-8661779D01*
X9812444Y-8661779D02*
X9821967Y-8642731D01*
X9821967Y-8642731D02*
X9831491Y-8633208D01*
X9831491Y-8633208D02*
X9850539Y-8623684D01*
X10002920Y-8823684D02*
X10002920Y-8690350D01*
X10002920Y-8709398D02*
X10012444Y-8699874D01*
X10012444Y-8699874D02*
X10031491Y-8690350D01*
X10031491Y-8690350D02*
X10060063Y-8690350D01*
X10060063Y-8690350D02*
X10079110Y-8699874D01*
X10079110Y-8699874D02*
X10088634Y-8718922D01*
X10088634Y-8718922D02*
X10088634Y-8823684D01*
X10088634Y-8718922D02*
X10098158Y-8699874D01*
X10098158Y-8699874D02*
X10117205Y-8690350D01*
X10117205Y-8690350D02*
X10145777Y-8690350D01*
X10145777Y-8690350D02*
X10164825Y-8699874D01*
X10164825Y-8699874D02*
X10174348Y-8718922D01*
X10174348Y-8718922D02*
X10174348Y-8823684D01*
X10269586Y-8823684D02*
X10269586Y-8690350D01*
X10269586Y-8709398D02*
X10279110Y-8699874D01*
X10279110Y-8699874D02*
X10298158Y-8690350D01*
X10298158Y-8690350D02*
X10326729Y-8690350D01*
X10326729Y-8690350D02*
X10345777Y-8699874D01*
X10345777Y-8699874D02*
X10355301Y-8718922D01*
X10355301Y-8718922D02*
X10355301Y-8823684D01*
X10355301Y-8718922D02*
X10364825Y-8699874D01*
X10364825Y-8699874D02*
X10383872Y-8690350D01*
X10383872Y-8690350D02*
X10412444Y-8690350D01*
X10412444Y-8690350D02*
X10431491Y-8699874D01*
X10431491Y-8699874D02*
X10441015Y-8718922D01*
X10441015Y-8718922D02*
X10441015Y-8823684D01*
X10831491Y-8614160D02*
X10660063Y-8871303D01*
X11088634Y-8623684D02*
X11107682Y-8623684D01*
X11107682Y-8623684D02*
X11126729Y-8633208D01*
X11126729Y-8633208D02*
X11136253Y-8642731D01*
X11136253Y-8642731D02*
X11145777Y-8661779D01*
X11145777Y-8661779D02*
X11155301Y-8699874D01*
X11155301Y-8699874D02*
X11155301Y-8747493D01*
X11155301Y-8747493D02*
X11145777Y-8785589D01*
X11145777Y-8785589D02*
X11136253Y-8804636D01*
X11136253Y-8804636D02*
X11126729Y-8814160D01*
X11126729Y-8814160D02*
X11107682Y-8823684D01*
X11107682Y-8823684D02*
X11088634Y-8823684D01*
X11088634Y-8823684D02*
X11069587Y-8814160D01*
X11069587Y-8814160D02*
X11060063Y-8804636D01*
X11060063Y-8804636D02*
X11050539Y-8785589D01*
X11050539Y-8785589D02*
X11041015Y-8747493D01*
X11041015Y-8747493D02*
X11041015Y-8699874D01*
X11041015Y-8699874D02*
X11050539Y-8661779D01*
X11050539Y-8661779D02*
X11060063Y-8642731D01*
X11060063Y-8642731D02*
X11069587Y-8633208D01*
X11069587Y-8633208D02*
X11088634Y-8623684D01*
X11241015Y-8804636D02*
X11250539Y-8814160D01*
X11250539Y-8814160D02*
X11241015Y-8823684D01*
X11241015Y-8823684D02*
X11231491Y-8814160D01*
X11231491Y-8814160D02*
X11241015Y-8804636D01*
X11241015Y-8804636D02*
X11241015Y-8823684D01*
X11374348Y-8623684D02*
X11393396Y-8623684D01*
X11393396Y-8623684D02*
X11412444Y-8633208D01*
X11412444Y-8633208D02*
X11421967Y-8642731D01*
X11421967Y-8642731D02*
X11431491Y-8661779D01*
X11431491Y-8661779D02*
X11441015Y-8699874D01*
X11441015Y-8699874D02*
X11441015Y-8747493D01*
X11441015Y-8747493D02*
X11431491Y-8785589D01*
X11431491Y-8785589D02*
X11421967Y-8804636D01*
X11421967Y-8804636D02*
X11412444Y-8814160D01*
X11412444Y-8814160D02*
X11393396Y-8823684D01*
X11393396Y-8823684D02*
X11374348Y-8823684D01*
X11374348Y-8823684D02*
X11355301Y-8814160D01*
X11355301Y-8814160D02*
X11345777Y-8804636D01*
X11345777Y-8804636D02*
X11336253Y-8785589D01*
X11336253Y-8785589D02*
X11326729Y-8747493D01*
X11326729Y-8747493D02*
X11326729Y-8699874D01*
X11326729Y-8699874D02*
X11336253Y-8661779D01*
X11336253Y-8661779D02*
X11345777Y-8642731D01*
X11345777Y-8642731D02*
X11355301Y-8633208D01*
X11355301Y-8633208D02*
X11374348Y-8623684D01*
X11631491Y-8823684D02*
X11517206Y-8823684D01*
X11574348Y-8823684D02*
X11574348Y-8623684D01*
X11574348Y-8623684D02*
X11555301Y-8652255D01*
X11555301Y-8652255D02*
X11536253Y-8671303D01*
X11536253Y-8671303D02*
X11517206Y-8680827D01*
X11726729Y-8823684D02*
X11764825Y-8823684D01*
X11764825Y-8823684D02*
X11783872Y-8814160D01*
X11783872Y-8814160D02*
X11793396Y-8804636D01*
X11793396Y-8804636D02*
X11812444Y-8776065D01*
X11812444Y-8776065D02*
X11821967Y-8737970D01*
X11821967Y-8737970D02*
X11821967Y-8661779D01*
X11821967Y-8661779D02*
X11812444Y-8642731D01*
X11812444Y-8642731D02*
X11802920Y-8633208D01*
X11802920Y-8633208D02*
X11783872Y-8623684D01*
X11783872Y-8623684D02*
X11745777Y-8623684D01*
X11745777Y-8623684D02*
X11726729Y-8633208D01*
X11726729Y-8633208D02*
X11717206Y-8642731D01*
X11717206Y-8642731D02*
X11707682Y-8661779D01*
X11707682Y-8661779D02*
X11707682Y-8709398D01*
X11707682Y-8709398D02*
X11717206Y-8728446D01*
X11717206Y-8728446D02*
X11726729Y-8737970D01*
X11726729Y-8737970D02*
X11745777Y-8747493D01*
X11745777Y-8747493D02*
X11783872Y-8747493D01*
X11783872Y-8747493D02*
X11802920Y-8737970D01*
X11802920Y-8737970D02*
X11812444Y-8728446D01*
X11812444Y-8728446D02*
X11821967Y-8709398D01*
X11888634Y-8623684D02*
X12021967Y-8623684D01*
X12021967Y-8623684D02*
X11936253Y-8823684D01*
X12088634Y-8623684D02*
X12088634Y-8661779D01*
X12164825Y-8623684D02*
X12164825Y-8661779D01*
X12460063Y-8899874D02*
X12450539Y-8890350D01*
X12450539Y-8890350D02*
X12431491Y-8861779D01*
X12431491Y-8861779D02*
X12421968Y-8842731D01*
X12421968Y-8842731D02*
X12412444Y-8814160D01*
X12412444Y-8814160D02*
X12402920Y-8766541D01*
X12402920Y-8766541D02*
X12402920Y-8728446D01*
X12402920Y-8728446D02*
X12412444Y-8680827D01*
X12412444Y-8680827D02*
X12421968Y-8652255D01*
X12421968Y-8652255D02*
X12431491Y-8633208D01*
X12431491Y-8633208D02*
X12450539Y-8604636D01*
X12450539Y-8604636D02*
X12460063Y-8595112D01*
X12621968Y-8690350D02*
X12621968Y-8823684D01*
X12574348Y-8614160D02*
X12526729Y-8757017D01*
X12526729Y-8757017D02*
X12650539Y-8757017D01*
X12879110Y-8823684D02*
X12879110Y-8623684D01*
X12964825Y-8823684D02*
X12964825Y-8718922D01*
X12964825Y-8718922D02*
X12955301Y-8699874D01*
X12955301Y-8699874D02*
X12936253Y-8690350D01*
X12936253Y-8690350D02*
X12907682Y-8690350D01*
X12907682Y-8690350D02*
X12888634Y-8699874D01*
X12888634Y-8699874D02*
X12879110Y-8709398D01*
X13088634Y-8823684D02*
X13069587Y-8814160D01*
X13069587Y-8814160D02*
X13060063Y-8804636D01*
X13060063Y-8804636D02*
X13050539Y-8785589D01*
X13050539Y-8785589D02*
X13050539Y-8728446D01*
X13050539Y-8728446D02*
X13060063Y-8709398D01*
X13060063Y-8709398D02*
X13069587Y-8699874D01*
X13069587Y-8699874D02*
X13088634Y-8690350D01*
X13088634Y-8690350D02*
X13117206Y-8690350D01*
X13117206Y-8690350D02*
X13136253Y-8699874D01*
X13136253Y-8699874D02*
X13145777Y-8709398D01*
X13145777Y-8709398D02*
X13155301Y-8728446D01*
X13155301Y-8728446D02*
X13155301Y-8785589D01*
X13155301Y-8785589D02*
X13145777Y-8804636D01*
X13145777Y-8804636D02*
X13136253Y-8814160D01*
X13136253Y-8814160D02*
X13117206Y-8823684D01*
X13117206Y-8823684D02*
X13088634Y-8823684D01*
X13269587Y-8823684D02*
X13250539Y-8814160D01*
X13250539Y-8814160D02*
X13241015Y-8795112D01*
X13241015Y-8795112D02*
X13241015Y-8623684D01*
X13421968Y-8814160D02*
X13402920Y-8823684D01*
X13402920Y-8823684D02*
X13364825Y-8823684D01*
X13364825Y-8823684D02*
X13345777Y-8814160D01*
X13345777Y-8814160D02*
X13336253Y-8795112D01*
X13336253Y-8795112D02*
X13336253Y-8718922D01*
X13336253Y-8718922D02*
X13345777Y-8699874D01*
X13345777Y-8699874D02*
X13364825Y-8690350D01*
X13364825Y-8690350D02*
X13402920Y-8690350D01*
X13402920Y-8690350D02*
X13421968Y-8699874D01*
X13421968Y-8699874D02*
X13431491Y-8718922D01*
X13431491Y-8718922D02*
X13431491Y-8737970D01*
X13431491Y-8737970D02*
X13336253Y-8757017D01*
X13507682Y-8814160D02*
X13526730Y-8823684D01*
X13526730Y-8823684D02*
X13564825Y-8823684D01*
X13564825Y-8823684D02*
X13583872Y-8814160D01*
X13583872Y-8814160D02*
X13593396Y-8795112D01*
X13593396Y-8795112D02*
X13593396Y-8785589D01*
X13593396Y-8785589D02*
X13583872Y-8766541D01*
X13583872Y-8766541D02*
X13564825Y-8757017D01*
X13564825Y-8757017D02*
X13536253Y-8757017D01*
X13536253Y-8757017D02*
X13517206Y-8747493D01*
X13517206Y-8747493D02*
X13507682Y-8728446D01*
X13507682Y-8728446D02*
X13507682Y-8718922D01*
X13507682Y-8718922D02*
X13517206Y-8699874D01*
X13517206Y-8699874D02*
X13536253Y-8690350D01*
X13536253Y-8690350D02*
X13564825Y-8690350D01*
X13564825Y-8690350D02*
X13583872Y-8699874D01*
X13660063Y-8899874D02*
X13669587Y-8890350D01*
X13669587Y-8890350D02*
X13688634Y-8861779D01*
X13688634Y-8861779D02*
X13698158Y-8842731D01*
X13698158Y-8842731D02*
X13707682Y-8814160D01*
X13707682Y-8814160D02*
X13717206Y-8766541D01*
X13717206Y-8766541D02*
X13717206Y-8728446D01*
X13717206Y-8728446D02*
X13707682Y-8680827D01*
X13707682Y-8680827D02*
X13698158Y-8652255D01*
X13698158Y-8652255D02*
X13688634Y-8633208D01*
X13688634Y-8633208D02*
X13669587Y-8604636D01*
X13669587Y-8604636D02*
X13660063Y-8595112D01*
D10*
X8835000Y-8946200D02*
X8835000Y-9046200D01*
X8785000Y-8996200D02*
X8885000Y-8996200D01*
D11*
X9250539Y-9087684D02*
X9136253Y-9087684D01*
X9193396Y-9087684D02*
X9193396Y-8887684D01*
X9193396Y-8887684D02*
X9174348Y-8916255D01*
X9174348Y-8916255D02*
X9155301Y-8935303D01*
X9155301Y-8935303D02*
X9136253Y-8944827D01*
X9336253Y-9068636D02*
X9345777Y-9078160D01*
X9345777Y-9078160D02*
X9336253Y-9087684D01*
X9336253Y-9087684D02*
X9326729Y-9078160D01*
X9326729Y-9078160D02*
X9336253Y-9068636D01*
X9336253Y-9068636D02*
X9336253Y-9087684D01*
X9469586Y-8887684D02*
X9488634Y-8887684D01*
X9488634Y-8887684D02*
X9507682Y-8897208D01*
X9507682Y-8897208D02*
X9517205Y-8906731D01*
X9517205Y-8906731D02*
X9526729Y-8925779D01*
X9526729Y-8925779D02*
X9536253Y-8963874D01*
X9536253Y-8963874D02*
X9536253Y-9011493D01*
X9536253Y-9011493D02*
X9526729Y-9049589D01*
X9526729Y-9049589D02*
X9517205Y-9068636D01*
X9517205Y-9068636D02*
X9507682Y-9078160D01*
X9507682Y-9078160D02*
X9488634Y-9087684D01*
X9488634Y-9087684D02*
X9469586Y-9087684D01*
X9469586Y-9087684D02*
X9450539Y-9078160D01*
X9450539Y-9078160D02*
X9441015Y-9068636D01*
X9441015Y-9068636D02*
X9431491Y-9049589D01*
X9431491Y-9049589D02*
X9421967Y-9011493D01*
X9421967Y-9011493D02*
X9421967Y-8963874D01*
X9421967Y-8963874D02*
X9431491Y-8925779D01*
X9431491Y-8925779D02*
X9441015Y-8906731D01*
X9441015Y-8906731D02*
X9450539Y-8897208D01*
X9450539Y-8897208D02*
X9469586Y-8887684D01*
X9660063Y-8887684D02*
X9679110Y-8887684D01*
X9679110Y-8887684D02*
X9698158Y-8897208D01*
X9698158Y-8897208D02*
X9707682Y-8906731D01*
X9707682Y-8906731D02*
X9717205Y-8925779D01*
X9717205Y-8925779D02*
X9726729Y-8963874D01*
X9726729Y-8963874D02*
X9726729Y-9011493D01*
X9726729Y-9011493D02*
X9717205Y-9049589D01*
X9717205Y-9049589D02*
X9707682Y-9068636D01*
X9707682Y-9068636D02*
X9698158Y-9078160D01*
X9698158Y-9078160D02*
X9679110Y-9087684D01*
X9679110Y-9087684D02*
X9660063Y-9087684D01*
X9660063Y-9087684D02*
X9641015Y-9078160D01*
X9641015Y-9078160D02*
X9631491Y-9068636D01*
X9631491Y-9068636D02*
X9621967Y-9049589D01*
X9621967Y-9049589D02*
X9612444Y-9011493D01*
X9612444Y-9011493D02*
X9612444Y-8963874D01*
X9612444Y-8963874D02*
X9621967Y-8925779D01*
X9621967Y-8925779D02*
X9631491Y-8906731D01*
X9631491Y-8906731D02*
X9641015Y-8897208D01*
X9641015Y-8897208D02*
X9660063Y-8887684D01*
X9850539Y-8887684D02*
X9869586Y-8887684D01*
X9869586Y-8887684D02*
X9888634Y-8897208D01*
X9888634Y-8897208D02*
X9898158Y-8906731D01*
X9898158Y-8906731D02*
X9907682Y-8925779D01*
X9907682Y-8925779D02*
X9917205Y-8963874D01*
X9917205Y-8963874D02*
X9917205Y-9011493D01*
X9917205Y-9011493D02*
X9907682Y-9049589D01*
X9907682Y-9049589D02*
X9898158Y-9068636D01*
X9898158Y-9068636D02*
X9888634Y-9078160D01*
X9888634Y-9078160D02*
X9869586Y-9087684D01*
X9869586Y-9087684D02*
X9850539Y-9087684D01*
X9850539Y-9087684D02*
X9831491Y-9078160D01*
X9831491Y-9078160D02*
X9821967Y-9068636D01*
X9821967Y-9068636D02*
X9812444Y-9049589D01*
X9812444Y-9049589D02*
X9802920Y-9011493D01*
X9802920Y-9011493D02*
X9802920Y-8963874D01*
X9802920Y-8963874D02*
X9812444Y-8925779D01*
X9812444Y-8925779D02*
X9821967Y-8906731D01*
X9821967Y-8906731D02*
X9831491Y-8897208D01*
X9831491Y-8897208D02*
X9850539Y-8887684D01*
X10002920Y-9087684D02*
X10002920Y-8954350D01*
X10002920Y-8973398D02*
X10012444Y-8963874D01*
X10012444Y-8963874D02*
X10031491Y-8954350D01*
X10031491Y-8954350D02*
X10060063Y-8954350D01*
X10060063Y-8954350D02*
X10079110Y-8963874D01*
X10079110Y-8963874D02*
X10088634Y-8982922D01*
X10088634Y-8982922D02*
X10088634Y-9087684D01*
X10088634Y-8982922D02*
X10098158Y-8963874D01*
X10098158Y-8963874D02*
X10117205Y-8954350D01*
X10117205Y-8954350D02*
X10145777Y-8954350D01*
X10145777Y-8954350D02*
X10164825Y-8963874D01*
X10164825Y-8963874D02*
X10174348Y-8982922D01*
X10174348Y-8982922D02*
X10174348Y-9087684D01*
X10269586Y-9087684D02*
X10269586Y-8954350D01*
X10269586Y-8973398D02*
X10279110Y-8963874D01*
X10279110Y-8963874D02*
X10298158Y-8954350D01*
X10298158Y-8954350D02*
X10326729Y-8954350D01*
X10326729Y-8954350D02*
X10345777Y-8963874D01*
X10345777Y-8963874D02*
X10355301Y-8982922D01*
X10355301Y-8982922D02*
X10355301Y-9087684D01*
X10355301Y-8982922D02*
X10364825Y-8963874D01*
X10364825Y-8963874D02*
X10383872Y-8954350D01*
X10383872Y-8954350D02*
X10412444Y-8954350D01*
X10412444Y-8954350D02*
X10431491Y-8963874D01*
X10431491Y-8963874D02*
X10441015Y-8982922D01*
X10441015Y-8982922D02*
X10441015Y-9087684D01*
X10831491Y-8878160D02*
X10660063Y-9135303D01*
X11088634Y-8887684D02*
X11107682Y-8887684D01*
X11107682Y-8887684D02*
X11126729Y-8897208D01*
X11126729Y-8897208D02*
X11136253Y-8906731D01*
X11136253Y-8906731D02*
X11145777Y-8925779D01*
X11145777Y-8925779D02*
X11155301Y-8963874D01*
X11155301Y-8963874D02*
X11155301Y-9011493D01*
X11155301Y-9011493D02*
X11145777Y-9049589D01*
X11145777Y-9049589D02*
X11136253Y-9068636D01*
X11136253Y-9068636D02*
X11126729Y-9078160D01*
X11126729Y-9078160D02*
X11107682Y-9087684D01*
X11107682Y-9087684D02*
X11088634Y-9087684D01*
X11088634Y-9087684D02*
X11069587Y-9078160D01*
X11069587Y-9078160D02*
X11060063Y-9068636D01*
X11060063Y-9068636D02*
X11050539Y-9049589D01*
X11050539Y-9049589D02*
X11041015Y-9011493D01*
X11041015Y-9011493D02*
X11041015Y-8963874D01*
X11041015Y-8963874D02*
X11050539Y-8925779D01*
X11050539Y-8925779D02*
X11060063Y-8906731D01*
X11060063Y-8906731D02*
X11069587Y-8897208D01*
X11069587Y-8897208D02*
X11088634Y-8887684D01*
X11241015Y-9068636D02*
X11250539Y-9078160D01*
X11250539Y-9078160D02*
X11241015Y-9087684D01*
X11241015Y-9087684D02*
X11231491Y-9078160D01*
X11231491Y-9078160D02*
X11241015Y-9068636D01*
X11241015Y-9068636D02*
X11241015Y-9087684D01*
X11374348Y-8887684D02*
X11393396Y-8887684D01*
X11393396Y-8887684D02*
X11412444Y-8897208D01*
X11412444Y-8897208D02*
X11421967Y-8906731D01*
X11421967Y-8906731D02*
X11431491Y-8925779D01*
X11431491Y-8925779D02*
X11441015Y-8963874D01*
X11441015Y-8963874D02*
X11441015Y-9011493D01*
X11441015Y-9011493D02*
X11431491Y-9049589D01*
X11431491Y-9049589D02*
X11421967Y-9068636D01*
X11421967Y-9068636D02*
X11412444Y-9078160D01*
X11412444Y-9078160D02*
X11393396Y-9087684D01*
X11393396Y-9087684D02*
X11374348Y-9087684D01*
X11374348Y-9087684D02*
X11355301Y-9078160D01*
X11355301Y-9078160D02*
X11345777Y-9068636D01*
X11345777Y-9068636D02*
X11336253Y-9049589D01*
X11336253Y-9049589D02*
X11326729Y-9011493D01*
X11326729Y-9011493D02*
X11326729Y-8963874D01*
X11326729Y-8963874D02*
X11336253Y-8925779D01*
X11336253Y-8925779D02*
X11345777Y-8906731D01*
X11345777Y-8906731D02*
X11355301Y-8897208D01*
X11355301Y-8897208D02*
X11374348Y-8887684D01*
X11507682Y-8887684D02*
X11631491Y-8887684D01*
X11631491Y-8887684D02*
X11564825Y-8963874D01*
X11564825Y-8963874D02*
X11593396Y-8963874D01*
X11593396Y-8963874D02*
X11612444Y-8973398D01*
X11612444Y-8973398D02*
X11621967Y-8982922D01*
X11621967Y-8982922D02*
X11631491Y-9001970D01*
X11631491Y-9001970D02*
X11631491Y-9049589D01*
X11631491Y-9049589D02*
X11621967Y-9068636D01*
X11621967Y-9068636D02*
X11612444Y-9078160D01*
X11612444Y-9078160D02*
X11593396Y-9087684D01*
X11593396Y-9087684D02*
X11536253Y-9087684D01*
X11536253Y-9087684D02*
X11517206Y-9078160D01*
X11517206Y-9078160D02*
X11507682Y-9068636D01*
X11726729Y-9087684D02*
X11764825Y-9087684D01*
X11764825Y-9087684D02*
X11783872Y-9078160D01*
X11783872Y-9078160D02*
X11793396Y-9068636D01*
X11793396Y-9068636D02*
X11812444Y-9040065D01*
X11812444Y-9040065D02*
X11821967Y-9001970D01*
X11821967Y-9001970D02*
X11821967Y-8925779D01*
X11821967Y-8925779D02*
X11812444Y-8906731D01*
X11812444Y-8906731D02*
X11802920Y-8897208D01*
X11802920Y-8897208D02*
X11783872Y-8887684D01*
X11783872Y-8887684D02*
X11745777Y-8887684D01*
X11745777Y-8887684D02*
X11726729Y-8897208D01*
X11726729Y-8897208D02*
X11717206Y-8906731D01*
X11717206Y-8906731D02*
X11707682Y-8925779D01*
X11707682Y-8925779D02*
X11707682Y-8973398D01*
X11707682Y-8973398D02*
X11717206Y-8992446D01*
X11717206Y-8992446D02*
X11726729Y-9001970D01*
X11726729Y-9001970D02*
X11745777Y-9011493D01*
X11745777Y-9011493D02*
X11783872Y-9011493D01*
X11783872Y-9011493D02*
X11802920Y-9001970D01*
X11802920Y-9001970D02*
X11812444Y-8992446D01*
X11812444Y-8992446D02*
X11821967Y-8973398D01*
X11993396Y-8954350D02*
X11993396Y-9087684D01*
X11945777Y-8878160D02*
X11898158Y-9021017D01*
X11898158Y-9021017D02*
X12021967Y-9021017D01*
X12088634Y-8887684D02*
X12088634Y-8925779D01*
X12164825Y-8887684D02*
X12164825Y-8925779D01*
X12460063Y-9163874D02*
X12450539Y-9154350D01*
X12450539Y-9154350D02*
X12431491Y-9125779D01*
X12431491Y-9125779D02*
X12421968Y-9106731D01*
X12421968Y-9106731D02*
X12412444Y-9078160D01*
X12412444Y-9078160D02*
X12402920Y-9030541D01*
X12402920Y-9030541D02*
X12402920Y-8992446D01*
X12402920Y-8992446D02*
X12412444Y-8944827D01*
X12412444Y-8944827D02*
X12421968Y-8916255D01*
X12421968Y-8916255D02*
X12431491Y-8897208D01*
X12431491Y-8897208D02*
X12450539Y-8868636D01*
X12450539Y-8868636D02*
X12460063Y-8859112D01*
X12526729Y-8906731D02*
X12536253Y-8897208D01*
X12536253Y-8897208D02*
X12555301Y-8887684D01*
X12555301Y-8887684D02*
X12602920Y-8887684D01*
X12602920Y-8887684D02*
X12621968Y-8897208D01*
X12621968Y-8897208D02*
X12631491Y-8906731D01*
X12631491Y-8906731D02*
X12641015Y-8925779D01*
X12641015Y-8925779D02*
X12641015Y-8944827D01*
X12641015Y-8944827D02*
X12631491Y-8973398D01*
X12631491Y-8973398D02*
X12517206Y-9087684D01*
X12517206Y-9087684D02*
X12641015Y-9087684D01*
X12879110Y-9087684D02*
X12879110Y-8887684D01*
X12964825Y-9087684D02*
X12964825Y-8982922D01*
X12964825Y-8982922D02*
X12955301Y-8963874D01*
X12955301Y-8963874D02*
X12936253Y-8954350D01*
X12936253Y-8954350D02*
X12907682Y-8954350D01*
X12907682Y-8954350D02*
X12888634Y-8963874D01*
X12888634Y-8963874D02*
X12879110Y-8973398D01*
X13088634Y-9087684D02*
X13069587Y-9078160D01*
X13069587Y-9078160D02*
X13060063Y-9068636D01*
X13060063Y-9068636D02*
X13050539Y-9049589D01*
X13050539Y-9049589D02*
X13050539Y-8992446D01*
X13050539Y-8992446D02*
X13060063Y-8973398D01*
X13060063Y-8973398D02*
X13069587Y-8963874D01*
X13069587Y-8963874D02*
X13088634Y-8954350D01*
X13088634Y-8954350D02*
X13117206Y-8954350D01*
X13117206Y-8954350D02*
X13136253Y-8963874D01*
X13136253Y-8963874D02*
X13145777Y-8973398D01*
X13145777Y-8973398D02*
X13155301Y-8992446D01*
X13155301Y-8992446D02*
X13155301Y-9049589D01*
X13155301Y-9049589D02*
X13145777Y-9068636D01*
X13145777Y-9068636D02*
X13136253Y-9078160D01*
X13136253Y-9078160D02*
X13117206Y-9087684D01*
X13117206Y-9087684D02*
X13088634Y-9087684D01*
X13269587Y-9087684D02*
X13250539Y-9078160D01*
X13250539Y-9078160D02*
X13241015Y-9059112D01*
X13241015Y-9059112D02*
X13241015Y-8887684D01*
X13421968Y-9078160D02*
X13402920Y-9087684D01*
X13402920Y-9087684D02*
X13364825Y-9087684D01*
X13364825Y-9087684D02*
X13345777Y-9078160D01*
X13345777Y-9078160D02*
X13336253Y-9059112D01*
X13336253Y-9059112D02*
X13336253Y-8982922D01*
X13336253Y-8982922D02*
X13345777Y-8963874D01*
X13345777Y-8963874D02*
X13364825Y-8954350D01*
X13364825Y-8954350D02*
X13402920Y-8954350D01*
X13402920Y-8954350D02*
X13421968Y-8963874D01*
X13421968Y-8963874D02*
X13431491Y-8982922D01*
X13431491Y-8982922D02*
X13431491Y-9001970D01*
X13431491Y-9001970D02*
X13336253Y-9021017D01*
X13507682Y-9078160D02*
X13526730Y-9087684D01*
X13526730Y-9087684D02*
X13564825Y-9087684D01*
X13564825Y-9087684D02*
X13583872Y-9078160D01*
X13583872Y-9078160D02*
X13593396Y-9059112D01*
X13593396Y-9059112D02*
X13593396Y-9049589D01*
X13593396Y-9049589D02*
X13583872Y-9030541D01*
X13583872Y-9030541D02*
X13564825Y-9021017D01*
X13564825Y-9021017D02*
X13536253Y-9021017D01*
X13536253Y-9021017D02*
X13517206Y-9011493D01*
X13517206Y-9011493D02*
X13507682Y-8992446D01*
X13507682Y-8992446D02*
X13507682Y-8982922D01*
X13507682Y-8982922D02*
X13517206Y-8963874D01*
X13517206Y-8963874D02*
X13536253Y-8954350D01*
X13536253Y-8954350D02*
X13564825Y-8954350D01*
X13564825Y-8954350D02*
X13583872Y-8963874D01*
X13660063Y-9163874D02*
X13669587Y-9154350D01*
X13669587Y-9154350D02*
X13688634Y-9125779D01*
X13688634Y-9125779D02*
X13698158Y-9106731D01*
X13698158Y-9106731D02*
X13707682Y-9078160D01*
X13707682Y-9078160D02*
X13717206Y-9030541D01*
X13717206Y-9030541D02*
X13717206Y-8992446D01*
X13717206Y-8992446D02*
X13707682Y-8944827D01*
X13707682Y-8944827D02*
X13698158Y-8916255D01*
X13698158Y-8916255D02*
X13688634Y-8897208D01*
X13688634Y-8897208D02*
X13669587Y-8868636D01*
X13669587Y-8868636D02*
X13660063Y-8859112D01*
M02*
